<svg width="78" height="35" viewBox="0 0 78 35" fill="none" xmlns="http://www.w3.org/2000/svg">
<path d="M14.72 -1.90735e-06V9.68C13.36 8.28 11.36 7.4 8.96 7.4C2.68 7.4 2.98023e-08 11.8 2.98023e-08 17.68C2.98023e-08 23.56 2.68 28 8.96 28C11.36 28 13.36 27.12 14.72 25.68V28H19.92V-1.90735e-06H14.72ZM9.96 22.8C6.64 22.8 5.2 21.8 5.2 17.68C5.2 13.6 6.64 12.6 9.96 12.6C13.28 12.6 14.72 13.6 14.72 17.68C14.72 21.8 13.28 22.8 9.96 22.8ZM24.7453 -1.90735e-06V4H29.9453V-1.90735e-06H24.7453ZM24.7453 7.4V28H29.9453V7.4H24.7453ZM48.8606 7.4V9.6C47.6606 8.48 45.9006 7.4 43.0206 7.4C37.0206 7.4 34.1406 11.52 34.1406 16.68C34.1406 21.88 37.0206 26 43.0206 26C45.9006 26 47.6606 24.92 48.8606 23.8V29.2H37.6606V34.4H54.0606V7.4H48.8606ZM44.1006 20.8C40.5806 20.8 39.3406 19.8 39.3406 16.68C39.3406 13.6 40.5806 12.6 44.1006 12.6C47.6206 12.6 48.8606 13.6 48.8606 16.68C48.8606 19.8 47.6206 20.8 44.1006 20.8ZM72.3763 7.4V9.6C71.1763 8.48 69.4163 7.4 66.5363 7.4C60.5363 7.4 57.6563 11.52 57.6563 16.68C57.6563 21.88 60.5363 26 66.5363 26C69.4163 26 71.1763 24.92 72.3763 23.8V29.2H61.1763V34.4H77.5763V7.4H72.3763ZM67.6163 20.8C64.0963 20.8 62.8563 19.8 62.8563 16.68C62.8563 13.6 64.0963 12.6 67.6163 12.6C71.1363 12.6 72.3763 13.6 72.3763 16.68C72.3763 19.8 71.1363 20.8 67.6163 20.8Z" fill="url(#paint0_linear_346_556)"/>
<defs>
<linearGradient id="paint0_linear_346_556" x1="-2" y1="16" x2="84" y2="16" gradientUnits="userSpaceOnUse">
<stop stop-color="#EDFF7D"/>
<stop offset="1" stop-color="#49F992"/>
</linearGradient>
</defs>
</svg>
